<?xml version="1.0" encoding="UTF-8"?>
<svg id="Capa_2" data-name="Capa 2" xmlns="http://www.w3.org/2000/svg" viewBox="0 0 478.29 167.07">
  <defs>
    <style>
      .cls-1 {
        fill: #222;
      }
    </style>
  </defs>
  <g id="Capa_1-2" data-name="Capa 1">
    <g>
      <g>
        <path class="cls-1" d="M371.4,124.66v3.53h-13.3v37.98h-4.07v-37.98h-13.3v-3.53h30.67Z"/>
        <path class="cls-1" d="M376.67,166.18v-41.52h23.96v3.53h-19.89v14.44h17.73v3.47h-17.73v16.53h21.45v3.53h-25.52Z"/>
        <path class="cls-1" d="M424.96,167.07c-2.68,0-5.16-.48-7.46-1.44-2.3-.96-4.29-2.36-5.99-4.19-1.7-1.84-3.04-4.1-4.01-6.8-.98-2.7-1.47-5.78-1.47-9.26s.53-6.56,1.59-9.26c1.06-2.7,2.47-4.96,4.22-6.8,1.76-1.84,3.79-3.22,6.11-4.16,2.32-.94,4.73-1.41,7.25-1.41,1.56,0,2.98.1,4.25.3,1.28.2,2.4.45,3.35.75.96.3,1.78.6,2.46.9.68.3,1.2.57,1.56.81l-1.32,3.53c-1-.6-2.27-1.19-3.8-1.77-1.54-.58-3.44-.87-5.72-.87-2.6,0-4.86.44-6.8,1.32-1.94.88-3.56,2.12-4.88,3.71-1.32,1.6-2.31,3.5-2.97,5.69-.66,2.2-.99,4.63-.99,7.31s.33,5.24.99,7.46c.66,2.22,1.63,4.1,2.91,5.66s2.85,2.76,4.7,3.59c1.86.84,3.98,1.26,6.38,1.26,2.64,0,4.84-.25,6.62-.75,1.78-.5,3.12-1.01,4.04-1.53l1.14,3.47c-.28.2-.76.43-1.44.69-.68.26-1.54.53-2.58.81-1.04.28-2.24.51-3.59.69-1.36.18-2.88.27-4.55.27Z"/>
        <path class="cls-1" d="M469.59,124.66h4.07v41.52h-4.07v-19.95h-22.52v19.95h-4.07v-41.52h4.07v18.03h22.52v-18.03Z"/>
      </g>
      <path class="cls-1" d="M40.65,28.99c-13.09,0-22.46,6.2-25.97,9.5-4.29-4.81-9.09-7.92-14.68-9.5v78.86h22.82v-43.16c0-7.35,5.63-13.68,12.97-14.04,7.84-.39,14.35,5.88,14.35,13.64v43.55h2.74c11.96,0,21.66-9.7,21.66-21.66v-18.69c0-24.11-12.67-38.51-33.89-38.51Z"/>
      <path class="cls-1" d="M82.85,28.99h4.85c10.79,0,19.55,8.76,19.55,19.55v59.31h-4.85c-10.79,0-19.55-8.76-19.55-19.55V28.99h0Z" transform="translate(190.11 136.85) rotate(-180)"/>
      <path class="cls-1" d="M289.67,28.99c-5.25,0-10.25,1.03-14.83,2.89V.19c-13.71.74-24.6,12.09-24.6,25.98v81.66h2.53c6.02,0,11.47-2.41,15.46-6.32,6.17,4.01,13.53,6.35,21.45,6.35,21.78,0,39.43-17.65,39.43-39.43s-17.65-39.43-39.43-39.43ZM289.67,87.1c-10.32,0-18.68-8.36-18.68-18.68s8.36-18.68,18.68-18.68,18.68,8.36,18.68,18.68-8.36,18.68-18.68,18.68Z"/>
      <path class="cls-1" d="M387.84,72.14c0,7.35-5.64,13.68-12.97,14.04-7.85.39-14.35-5.88-14.35-13.65V28.97h-2.74c-11.97,0-21.67,9.7-21.67,21.67v18.7c0,24.12,12.67,38.52,33.9,38.52,13.09,0,22.46-7.44,25.98-10.74,4.29,4.81,9.1,9.16,14.69,10.74V28.97h-22.83v43.17ZM457.7,59.81c-.91-.33-1.82-.65-2.7-.96-6.04-2.13-11.25-3.97-11.25-7.43,0-4.07,3.97-5.54,7.47-4.93,7.35,1.28,21.88,9.15,21.88,9.15v-21.15s-13.42-5.54-22.91-5.54c-17.51,0-28.93,9.05-28.93,23.5,0,10,6.61,17.42,20.21,22.68.83.33,1.66.64,2.47.95,6.36,2.43,11.86,4.53,11.86,8.2s-6.08,13-37.87-6.12l-.8-.61v19.16l.72.59c7.87,6.42,19.27,10.56,29.04,10.56,19.07,0,31.39-9.76,31.39-24.86,0-13.74-10.4-19.44-20.59-23.2Z"/>
      <circle class="cls-1" cx="95.05" cy="12.2" r="12.2"/>
      <path class="cls-1" d="M241.93,67.5v18.69c0,11.96-9.7,21.66-21.66,21.66h-2.74v-43.55c0-7.76-6.5-14.03-14.35-13.64-7.34.36-12.97,6.69-12.97,14.04v43.16s-22.93,0-22.93,0v-43.55c0-7.76-6.5-14.03-14.35-13.64-7.34.36-12.97,6.69-12.97,14.04v43.16s0,0,0,0c-13.48,0-24.4-10.92-24.4-24.4V28.99s7.88,1.05,18.23,9.63c3.8-3.57,12.04-9.63,24.16-9.63,9.88,0,17.59,3.42,24.12,10.74,3.51-3.3,12.88-10.74,25.97-10.74,21.22,0,33.89,14.39,33.89,38.51Z"/>
    </g>
  </g>
</svg>